<svg version="1.0" xmlns="http://www.w3.org/2000/svg" width="1600" height="600" viewBox="0 0 16000 6000"><path d="M965 5312c-182-54-314-178-376-352-20-55-24-84-24-190 0-105 4-135 23-189 26-72 74-151 126-209l35-39-29-28c-17-16-49-57-71-92-156-239-102-587 117-752 118-90 218-121 385-121 176 0 318 40 451 125 68 45 69 45 95 28 25-17 81-18 745-21l718-3V2322l-277-754c-189-515-277-766-277-795-1-50 30-88 83-103 51-14 388-12 430 3 19 7 42 23 52 37s70 198 134 410c63 212 118 392 122 400 3 9 12-10 21-45 8-33 52-215 98-405 91-371 95-381 163-400 47-13 365-13 412 0 53 15 84 53 83 103 0 25-97 356-232 797l-232 755v1145h124c110 0 125-2 130-17 3-10 138-628 300-1373 290-1329 296-1356 325-1382 38-34 85-41 250-37 149 5 177 16 199 85 6 21 142 642 300 1379l287 1340 38 3 37 3 1-1348c0-1017 3-1356 12-1382 23-67 48-76 229-79 89-2 181-1 205 3 85 13 79 1 274 581l178 529v-503c1-547 2-552 57-589 25-16 51-18 235-18 195 0 209 1 236 21 15 11 34 32 40 45 10 19 13 324 13 1382v1357h270l1-1347c0-1018 3-1356 12-1382 7-19 25-44 40-55 28-20 39-21 335-20 321 0 388 6 529 47 168 49 297 157 411 344 75 124 136 323 166 539 26 184 38 534 27 759-25 485-100 757-263 951-50 60-83 89-152 133l-50 31h694l1-1347c0-1018 3-1356 12-1382 7-19 25-44 40-55 28-21 39-21 521-24 535-3 551-2 590 51 19 26 21 41 21 206 0 128-4 185-13 202-28 52-38 54-324 57l-268 3v649l213 1c232 0 267 6 301 52 19 26 21 41 21 206 0 128-4 185-13 202-27 51-40 54-289 57l-233 3v719l248 1c361 0 355-4 360 240l4 159h188l1-1347c0-1018 3-1356 12-1382 7-19 25-44 40-55 28-20 40-21 335-21 398 0 497 18 645 115 162 105 262 309 287 582 24 276-37 550-162 716-34 46-136 133-168 144-5 1 93 276 220 610 126 334 230 615 230 623 0 12 14 15 70 15h70l1-1347c0-1018 3-1356 12-1382 7-19 25-44 40-55 28-21 39-21 521-24 535-3 551-2 590 51 19 26 21 41 21 206 0 128-4 185-13 202-28 52-38 54-324 57l-268 3v649l213 1c232 0 267 6 301 52 19 26 21 41 21 206 0 128-4 185-13 202-27 51-40 54-289 57l-233 3v719l248 1c361 0 355-4 360 239l4 159 442 3c401 3 444 5 469 21 26 17 27 17 95-28 133-85 275-125 451-125 167 0 267 31 385 121 219 165 273 513 117 752-22 35-54 76-71 92l-29 28 35 39c52 58 100 137 126 209 19 54 23 84 23 189 0 106-4 135-24 190-64 179-204 306-391 355-52 14-93 16-205 12-190-7-300-40-429-130-60-42-63-43-86-28-22 15-591 16-6295 16s-6273-1-6295-16c-23-15-26-14-86 28-133 93-239 124-439 129-123 3-161 1-210-14zm4114-1854c0-7-17-98-37-203l-37-190-186-3-185-2-37 197c-21 109-37 201-37 206 0 4 117 7 260 7 202 0 260-3 259-12zm1395-510c-96-287-177-525-180-528-6-6 5 1018 11 1038 3 9 47 12 174 12h170l-175-522zm4986 514c0-4-61-170-134-368l-135-359v368l-1 367h135c74 0 135-4 135-8zm-3283-444c113-42 174-153 210-388 26-165 26-786 0-970-31-220-66-321-140-398-40-41-123-82-167-82-20 0-20 13-20 936v936l33-7c17-4 55-16 84-27zm-3272-480c-14-66-75-403-75-419 0-10-3-19-8-19-4 0-25 93-46 208-20 114-40 217-43 230-5 22-3 22 86 22 90 0 91 0 86-22zm6355-703c38-20 68-56 84-102 22-63 30-214 17-322-18-143-60-212-138-227l-33-6v683l23-7c12-3 33-12 47-19z" fill="#ff7dcd"/><g fill="#ffbcf4"><path d="M1020 5220c-25-6-74-24-110-42-219-108-310-381-202-611 31-68 122-173 179-208l36-23-24-15c-13-9-52-42-85-74-276-261-159-712 205-793 135-30 336-2 470 65 117 60 208 145 455 430 84 97 196 223 248 281l96 105-50 55c-27 30-113 127-190 215-299 340-351 396-426 456-84 68-183 119-277 144-72 19-263 28-325 15zm13675-5c-130-24-218-66-329-155-73-59-125-115-424-455-77-88-163-185-190-215l-50-55 96-105c52-58 164-184 248-281 247-285 338-370 455-430 134-67 335-95 470-65 364 81 481 532 205 793-33 32-72 65-85 74l-24 15 36 23c57 35 148 140 179 208 108 230 17 504-202 611-108 53-236 65-385 37z"/><path d="M1802 5033c25-27 142-158 259-292 118-133 237-269 265-301 58-66 70-97 52-139-7-16-67-90-133-163-67-73-166-185-220-248-55-63-139-159-188-212l-89-98h12494l-89 98c-49 53-133 149-188 212-54 63-153 175-220 248-66 73-126 147-133 163-18 42-6 73 52 139 28 32 147 168 265 301 117 134 234 265 259 292l46 47H1756l46-47zm1468-2130v-578l-284-775-284-775 191-3c105-1 194 1 198 5 9 10 259 833 298 983 16 63 35 144 42 180l13 65 22-130c25-146 58-291 175-773l81-332h195c152 0 194 3 190 13-2 6-108 352-236 768l-231 755v1174h-370v-577zm830 540c18-78 571-2619 577-2646l6-28 146 3 146 3 287 1335c158 734 287 1343 288 1353 0 16-13 17-182 15l-182-3-50-262-50-263h-532l-43 218c-23 119-47 238-53 265l-10 47h-356l8-37zm930-780c0-3-20-115-45-247-78-425-153-926-156-1046-1-57-7-26-34 185-30 232-76 514-140 850-25 131-45 244-45 251 0 11 40 14 210 14 116 0 210-3 210-7zm810-538V770l173 2 172 3 206 615c229 681 277 834 355 1120 29 107 53 189 53 183 1-7-8-93-19-190-37-329-42-436-47-1085l-6-648h383v2710l-176-2-177-3-204-610c-113-335-227-682-255-770-50-163-132-475-144-553-15-94-14-23 0 184 20 275 33 669 42 1277l6 477h-362V2125zm1750 0V770h294c451 0 557 27 714 182 146 144 234 356 277 668 23 164 32 680 16 875-41 494-163 760-405 882-150 75-327 103-663 103h-233V2125zm555 1009c211-52 299-183 347-519 21-143 17-816-5-970-57-407-167-545-451-571l-76-7v2095l63-7c34-3 89-13 122-21zm1195-1009V770h970v300h-600v870h540v300h-540v940h600v300h-970V2125zm1380 0V770h294c337 0 409 9 523 65 125 62 217 187 266 364 18 65 21 105 21 276 1 175-2 211-21 287-45 177-136 308-255 368-34 16-67 30-75 30-7 0-13 2-13 5 0 2 110 296 245 652 135 355 245 650 245 655s-84 7-186 6l-187-3-241-645-241-645-3 648-2 647h-370V2125zm560-187c80-30 133-89 162-180 20-63 23-94 23-228 0-165-11-232-50-310-48-95-118-135-252-147l-73-6v905l67-7c38-4 93-16 123-27zm1020 187V770h970v300h-600v870h540v300h-540v940h600v300h-970V2125z"/></g><path d="M3075 4798c-54-19-65-36-65-99v-58l53 24c57 27 82 30 121 15 57-21 83-119 52-194-8-19-58-82-111-142-117-130-136-167-136-270 0-98 32-171 94-212 36-24 50-27 121-27 112 0 126 10 126 85v60l-40-21c-108-56-211 47-166 164 10 26 54 84 111 146 124 135 140 169 140 286-1 99-18 146-72 197-56 53-152 73-228 46zm3600-3c-48-17-89-60-106-112-9-27-14-158-16-440l-4-403h131v368c0 202 5 385 10 407 11 49 41 75 85 75 46 0 75-27 86-80 4-25 8-208 9-407v-363h120v403c0 263-4 416-11 442-28 102-176 155-304 110zm4750 3c-123-44-166-169-167-483-1-190 10-279 43-355 38-86 104-129 195-130 96 0 161 36 198 108 44 89 51 142 51 392 0 217-2 241-23 307-38 121-106 174-222 172-25 0-58-5-75-11zm119-109c39-18 57-69 69-204 14-154-2-435-27-484-37-71-121-80-158-16-49 85-51 557-3 659 24 50 69 67 119 45zm-7374-369v-480h130v960h-130v-480zm940 474c0-21 71-877 76-911l5-43h54c48 0 55 3 60 23 30 132 82 381 104 502l27 150 13-80c12-77 96-526 108-573 5-21 10-23 62-20l56 3 42 450c23 248 42 462 42 478 1 26 0 27-59 27s-59 0-64-32c-9-56-26-370-26-472 0-57-4-96-10-96-5 0-10 8-10 18 0 19-97 534-106 565-4 13-16 17-48 17h-42l-43-202c-24-112-51-250-61-308-16-99-17-103-23-60-4 25-11 144-17 265s-13 239-16 263l-5 42h-60c-32 0-59-3-59-6zm2710-474v-480h130v850h210v110h-340v-480zm1094 463c3-10 48-218 101-463s98-453 101-462c4-14 16-18 54-18s50 4 54 18c3 9 46 208 96 442 50 233 95 442 99 463l9 38-66-3-67-3-12-70c-23-127-10-115-117-115h-94l-17 95-17 95h-65c-57 0-64-2-59-17zm323-290c-3-16-17-104-32-198-15-93-30-183-35-200l-8-30-1 32c-1 34-57 375-67 405-5 16 2 18 71 18h77l-5-27zm1003-118v-425h-150v-110h420v110h-150v850h-120v-425zm2320-56v-481l128 4c161 4 193 18 237 103 26 50 29 67 29 144 0 104-20 167-69 209-18 16-39 32-47 34-10 4 2 45 49 169 34 90 74 195 88 232l25 68-67-3-67-3-82-218c-45-120-85-221-88-225-3-3-6 97-6 221v227h-130v-481zm222-73c57-35 64-215 10-268-10-11-38-22-61-25l-41-6v155c0 85 3 158 7 162 9 8 61-2 85-18zM3270 2896v-583l-280-764c-154-420-280-767-280-771 0-5 86-8 190-8 105 0 190 2 190 4s59 197 131 432c126 416 185 627 209 747 7 32 13 57 15 55s11-48 20-103c18-114 95-454 193-855l67-275 188-3c119-1 187 1 187 7s-106 356-235 778l-235 767v1156h-360v-584zm834 552c4-18 136-627 294-1353l288-1320 141-3c139-3 141-2 146 20 3 13 132 613 287 1333 155 721 284 1320 287 1333l5 22h-360l-42-217c-23-120-46-239-52-265l-10-48h-268c-205 0-269 3-272 13-3 6-27 126-53 265l-49 252h-348l6-32zm930-795c-47-200-167-954-195-1228-15-139-18-132-44 90-26 223-152 971-192 1133l-5 22h220c205 0 220-1 216-17zm806-528V770h170c94 0 170 2 170 3 0 2 97 292 216 643 217 644 282 853 374 1200 28 104 48 173 45 154-17-123-56-510-64-644-6-88-11-428-11-758V770h360v2710h-337l-236-707c-130-390-254-773-276-853-44-156-111-443-111-474 0-11-2-17-5-14s1 99 9 214c27 373 35 581 41 1044 3 250 8 530 11 623l6 167h-362V2125zm1750 0V768l318 5c355 6 418 14 537 72 94 45 172 118 244 225 136 204 193 463 207 944 9 320-14 635-61 839-72 310-221 490-469 566-130 40-240 52-513 58l-263 6V2125zm533 1020c182-38 287-146 338-343 86-335 74-1114-22-1411-30-93-55-138-111-198-78-81-185-123-318-123h-60v2090h53c28 0 82-7 120-15zm1217-1020V770h970v300h-610v870h540v300h-540v940h610v300h-970V2125zm1380 0V770h273c149 0 304 5 342 10 265 38 412 181 472 461 23 110 23 380 0 485-47 210-143 352-272 405-22 9-49 21-61 25-20 9-11 36 227 664 137 360 249 656 249 658 0 1-83 2-183 2h-184l-243-652c-134-359-247-657-252-663-4-5-8 289-8 653v662h-360V2125zm541-174c86-26 150-91 185-186 22-64 31-314 14-412-33-195-131-283-312-283h-68v903l73-6c39-3 88-10 108-16zm1039 174V770h970v300h-610v870h540v300h-540v940h610v300h-970V2125z" fill="#fffdff"/></svg>