<?xml version="1.0" encoding="UTF-8"?>
<!DOCTYPE svg PUBLIC "-//W3C//DTD SVG 1.1//EN" "http://www.w3.org/Graphics/SVG/1.1/DTD/svg11.dtd">
<svg xmlns="http://www.w3.org/2000/svg" version="1.1" width="1512px" height="511px" style="shape-rendering:geometricPrecision; text-rendering:geometricPrecision; image-rendering:optimizeQuality; fill-rule:evenodd; clip-rule:evenodd" xmlns:xlink="http://www.w3.org/1999/xlink">
<g><path style="opacity:0.987" fill="#ff7ecd" d="M 624.5,15.5 C 662.309,15.8068 687.475,33.8068 700,69.5C 704.058,80.8452 706.724,92.5118 708,104.5C 708.5,76.1686 708.667,47.8353 708.5,19.5C 731.836,19.3334 755.169,19.5 778.5,20C 793.173,20.7495 806.84,24.7495 819.5,32C 824.667,35.8333 829.167,40.3333 833,45.5C 833.5,36.8397 833.666,28.1731 833.5,19.5C 853.833,19.5 874.167,19.5 894.5,19.5C 894.5,55.5 894.5,91.5 894.5,127.5C 904.833,127.5 915.167,127.5 925.5,127.5C 925.5,91.5 925.5,55.5 925.5,19.5C 945.5,19.5 965.5,19.5 985.5,19.5C 985.5,116.833 985.5,214.167 985.5,311.5C 986.833,311.5 988.167,311.5 989.5,311.5C 989.5,214.167 989.5,116.833 989.5,19.5C 1009.83,19.5 1030.17,19.5 1050.5,19.5C 1050.5,116.833 1050.5,214.167 1050.5,311.5C 1051.83,311.5 1053.17,311.5 1054.5,311.5C 1054.5,214.167 1054.5,116.833 1054.5,19.5C 1074.5,19.5 1094.5,19.5 1114.5,19.5C 1114.5,101.167 1114.5,182.833 1114.5,264.5C 1129.17,264.5 1143.83,264.5 1158.5,264.5C 1158.5,182.833 1158.5,101.167 1158.5,19.5C 1178.5,19.5 1198.5,19.5 1218.5,19.5C 1218.33,88.5008 1218.5,157.501 1219,226.5C 1233.9,157.5 1248.73,88.4997 1263.5,19.5C 1279.83,19.5 1296.17,19.5 1312.5,19.5C 1333.17,116.833 1353.83,214.167 1374.5,311.5C 1380.03,311.575 1385.37,312.575 1390.5,314.5C 1414.16,298.224 1439.82,294.057 1467.5,302C 1493.76,315.013 1504.93,336.179 1501,365.5C 1498.43,378.146 1492.6,388.98 1483.5,398C 1500.36,414.937 1505.86,435.103 1500,458.5C 1490.29,484.711 1471.46,497.711 1443.5,497.5C 1431.45,498.035 1419.78,496.202 1408.5,492C 1402.19,488.6 1396.02,485.1 1390,481.5C 1375.52,482.292 1361.02,482.792 1346.5,483C 1159.83,483.167 973.167,483.333 786.5,483.5C 582.029,483.135 377.696,483.135 173.5,483.5C 157.671,482.826 141.838,482.159 126,481.5C 117.646,487.426 108.48,491.926 98.5,495C 84.9255,497.354 71.2588,498.021 57.5,497C 34.878,490.712 20.7113,476.212 15,453.5C 11.0106,431.806 16.8439,413.306 32.5,398C 11.5815,375.153 8.41486,349.986 23,322.5C 32.1367,310.012 44.3034,302.179 59.5,299C 83.6389,295.369 105.639,300.536 125.5,314.5C 129.644,312.882 133.978,312.049 138.5,312C 146.493,311.5 154.493,311.334 162.5,311.5C 162.5,214.167 162.5,116.833 162.5,19.5C 185.836,19.3334 209.169,19.5 232.5,20C 247.173,20.7495 260.84,24.7495 273.5,32C 278.667,35.8333 283.167,40.3333 287,45.5C 287.5,36.8397 287.666,28.1731 287.5,19.5C 347.168,19.3333 406.834,19.5 466.5,20C 500.466,20.6406 524.3,36.4739 538,67.5C 542.28,78.0086 545.947,88.6752 549,99.5C 551.48,79.0521 558.48,60.3855 570,43.5C 584.247,26.2944 602.414,16.9611 624.5,15.5 Z M 348.5,74.5 C 364.833,74.5 381.167,74.5 397.5,74.5C 397.5,95.8333 397.5,117.167 397.5,138.5C 381.167,138.5 364.833,138.5 348.5,138.5C 348.5,117.167 348.5,95.8333 348.5,74.5 Z M 625.5,74.5 C 629.516,73.8999 633.016,74.8999 636,77.5C 639.633,83.3919 642.3,89.7252 644,96.5C 651.333,145.164 651.333,193.831 644,242.5C 642.193,250.29 638.693,257.123 633.5,263C 628.443,265.351 623.943,264.518 620,260.5C 615.423,252.772 612.423,244.439 611,235.5C 609.538,225.212 608.538,214.879 608,204.5C 606.896,173.119 607.563,141.786 610,110.5C 610.936,99.0285 614.269,88.3618 620,78.5C 621.812,77.0229 623.645,75.6896 625.5,74.5 Z M 458.5,75.5 C 470.707,77.8632 479.207,84.8632 484,96.5C 487.997,107.484 490.33,118.817 491,130.5C 493.373,163.9 492.706,197.233 489,230.5C 486.544,248.814 476.377,259.814 458.5,263.5C 458.5,200.833 458.5,138.167 458.5,75.5 Z M 769.5,75.5 C 775.776,77.2756 779.943,81.2756 782,87.5C 786.593,102.159 786.593,116.825 782,131.5C 779.896,136.768 776.062,140.101 770.5,141.5C 769.5,119.51 769.167,97.5101 769.5,75.5 Z M 223.5,76.5 C 229.534,77.3545 233.7,80.6878 236,86.5C 240.265,100.73 240.598,115.064 237,129.5C 234.965,135.702 230.798,139.702 224.5,141.5C 223.5,119.844 223.167,98.1769 223.5,76.5 Z M 1286.5,166.5 C 1288.88,182.085 1291.55,197.752 1294.5,213.5C 1289.5,213.5 1284.5,213.5 1279.5,213.5C 1281.55,197.788 1283.89,182.121 1286.5,166.5 Z M 832.5,167.5 C 833.499,215.33 833.832,263.33 833.5,311.5C 812.167,311.5 790.833,311.5 769.5,311.5C 769.5,273.167 769.5,234.833 769.5,196.5C 787.247,196.987 803.58,192.487 818.5,183C 823.744,178.261 828.41,173.095 832.5,167.5 Z M 286.5,168.5 C 287.499,215.997 287.832,263.664 287.5,311.5C 266.167,311.5 244.833,311.5 223.5,311.5C 223.5,273.167 223.5,234.833 223.5,196.5C 249.399,197.557 270.399,188.224 286.5,168.5 Z M 894.5,182.5 C 904.833,182.5 915.167,182.5 925.5,182.5C 925.5,225.5 925.5,268.5 925.5,311.5C 915.167,311.5 904.833,311.5 894.5,311.5C 894.5,268.5 894.5,225.5 894.5,182.5 Z M 348.5,193.5 C 364.833,193.5 381.167,193.5 397.5,193.5C 397.5,217.167 397.5,240.833 397.5,264.5C 381.167,264.5 364.833,264.5 348.5,264.5C 348.5,240.833 348.5,217.167 348.5,193.5 Z M 707.5,234.5 C 708.498,259.995 708.831,285.661 708.5,311.5C 695.496,311.667 682.496,311.5 669.5,311C 688.861,295.796 700.694,275.963 705,251.5C 706.269,245.889 707.102,240.222 707.5,234.5 Z M 548.5,242.5 C 551.092,249.907 553.259,257.574 555,265.5C 560.681,284.038 571.181,299.205 586.5,311C 557.5,311.667 528.5,311.667 499.5,311C 519.763,302.069 533.929,287.236 542,266.5C 545.094,258.724 547.26,250.724 548.5,242.5 Z M 1269.5,265.5 C 1281.19,265.168 1292.85,265.501 1304.5,266.5C 1307.57,281.347 1310.57,296.181 1313.5,311C 1296.17,311.5 1278.84,311.667 1261.5,311.5C 1263.78,296.098 1266.45,280.765 1269.5,265.5 Z"/></g>
<g><path style="opacity:1" fill="#ffbfe6" d="M 624.5,27.5 C 621.026,28.5249 617.36,29.1916 613.5,29.5C 616.845,27.783 620.511,27.1164 624.5,27.5 Z"/></g>
<g><path style="opacity:1" fill="#fffefe" d="M 624.5,27.5 C 652.525,27.2512 672.691,39.5845 685,64.5C 693.454,85.3193 697.954,106.986 698.5,129.5C 699.326,150.489 699.66,171.489 699.5,192.5C 699.097,216.632 695.597,240.298 689,263.5C 674.424,304.04 646.257,318.54 604.5,307C 588.24,299.405 576.74,287.239 570,270.5C 563.547,253.07 559.714,235.07 558.5,216.5C 558.414,209.963 557.747,203.63 556.5,197.5C 556.045,171.126 556.712,144.793 558.5,118.5C 559.972,114.081 560.638,109.414 560.5,104.5C 562.431,83.1989 569.764,64.0322 582.5,47C 589.294,40.4344 596.961,35.101 605.5,31C 608.063,29.9207 610.729,29.4207 613.5,29.5C 617.36,29.1916 621.026,28.5249 624.5,27.5 Z M 625.5,74.5 C 623.645,75.6896 621.812,77.0229 620,78.5C 614.269,88.3618 610.936,99.0285 610,110.5C 607.563,141.786 606.896,173.119 608,204.5C 608.538,214.879 609.538,225.212 611,235.5C 612.423,244.439 615.423,252.772 620,260.5C 623.943,264.518 628.443,265.351 633.5,263C 638.693,257.123 642.193,250.29 644,242.5C 651.333,193.831 651.333,145.164 644,96.5C 642.3,89.7252 639.633,83.3919 636,77.5C 633.016,74.8999 629.516,73.8999 625.5,74.5 Z"/></g>
<g><path style="opacity:1" fill="#fffdfe" d="M 235.5,183.5 C 227.679,184.03 220.012,184.696 212.5,185.5C 211.667,225.665 211.167,265.998 211,306.5C 199,307.833 187,307.833 175,306.5C 174.5,214.834 174.333,123.167 174.5,31.5C 191.503,31.3334 208.503,31.5001 225.5,32C 241.404,31.6417 256.071,35.6417 269.5,44C 279.173,53.1751 285.34,64.3418 288,77.5C 288.667,96.1667 288.667,114.833 288,133.5C 282.98,163.355 265.48,180.021 235.5,183.5 Z M 223.5,76.5 C 223.167,98.1769 223.5,119.844 224.5,141.5C 230.798,139.702 234.965,135.702 237,129.5C 240.598,115.064 240.265,100.73 236,86.5C 233.7,80.6878 229.534,77.3545 223.5,76.5 Z"/></g>
<g><path style="opacity:1" fill="#fffdfe" d="M 300.5,31.5 C 333.167,31.5 365.833,31.5 398.5,31.5C 398.5,41.8333 398.5,52.1667 398.5,62.5C 377.924,62.1734 357.424,62.5067 337,63.5C 336.5,92.1647 336.333,120.831 336.5,149.5C 354.833,149.5 373.167,149.5 391.5,149.5C 391.5,160.167 391.5,170.833 391.5,181.5C 373.167,181.5 354.833,181.5 336.5,181.5C 336.5,212.833 336.5,244.167 336.5,275.5C 357.076,275.173 377.576,275.507 398,276.5C 398.819,286.744 398.652,296.91 397.5,307C 364.928,307.829 332.428,307.662 300,306.5C 299.169,214.763 299.336,123.097 300.5,31.5 Z"/></g>
<g><path style="opacity:1" fill="#fffefe" d="M 540.5,128.5 C 540.276,134.739 540.943,140.739 542.5,146.5C 543.326,175.261 542.159,203.928 539,232.5C 536.189,250.777 529.523,267.443 519,282.5C 505.146,297.339 487.979,305.006 467.5,305.5C 462.586,305.362 457.919,306.028 453.5,307.5C 438.921,307.824 424.421,307.49 410,306.5C 409.333,215.167 409.333,123.833 410,32.5C 432.455,31.0964 454.955,31.263 477.5,33C 502.816,37.7554 519.983,52.2554 529,76.5C 535.667,93.1704 539.5,110.504 540.5,128.5 Z M 458.5,75.5 C 458.5,138.167 458.5,200.833 458.5,263.5C 476.377,259.814 486.544,248.814 489,230.5C 492.706,197.233 493.373,163.9 491,130.5C 490.33,118.817 487.997,107.484 484,96.5C 479.207,84.8632 470.707,77.8632 458.5,75.5 Z"/></g>
<g><path style="opacity:1" fill="#fffefe" d="M 721.5,31.5 C 745.224,30.9477 768.89,31.781 792.5,34C 814.238,38.7386 827.738,51.9053 833,73.5C 833.667,94.5 833.667,115.5 833,136.5C 827.915,163.586 811.748,179.086 784.5,183C 775.623,183.939 766.79,184.772 758,185.5C 757.667,225.833 757.333,266.167 757,306.5C 756.329,307.252 755.496,307.586 754.5,307.5C 743.679,306.505 732.679,306.172 721.5,306.5C 721.5,214.833 721.5,123.167 721.5,31.5 Z M 769.5,75.5 C 769.167,97.5101 769.5,119.51 770.5,141.5C 776.062,140.101 779.896,136.768 782,131.5C 786.593,116.825 786.593,102.159 782,87.5C 779.943,81.2756 775.776,77.2756 769.5,75.5 Z"/></g>
<g><path style="opacity:1" fill="#fffdfe" d="M 846.5,31.5 C 858.5,31.5 870.5,31.5 882.5,31.5C 882.5,67.5 882.5,103.5 882.5,139.5C 900.833,139.5 919.167,139.5 937.5,139.5C 937.5,103.5 937.5,67.5 937.5,31.5C 949.833,31.5 962.167,31.5 974.5,31.5C 974.667,123.167 974.5,214.834 974,306.5C 961.914,307.488 949.747,307.822 937.5,307.5C 937.5,261.833 937.5,216.167 937.5,170.5C 919.167,170.5 900.833,170.5 882.5,170.5C 882.667,215.835 882.5,261.168 882,306.5C 881.329,307.252 880.496,307.586 879.5,307.5C 868.679,306.505 857.679,306.172 846.5,306.5C 846.5,214.833 846.5,123.167 846.5,31.5 Z"/></g>
<g><path style="opacity:1" fill="#fffdfe" d="M 1001.5,31.5 C 1013.83,31.5 1026.17,31.5 1038.5,31.5C 1038.5,123.5 1038.5,215.5 1038.5,307.5C 1026.17,307.5 1013.83,307.5 1001.5,307.5C 1001.5,215.5 1001.5,123.5 1001.5,31.5 Z"/></g>
<g><path style="opacity:1" fill="#fffdfe" d="M 1066.5,31.5 C 1078.5,31.5 1090.5,31.5 1102.5,31.5C 1102.5,112.833 1102.5,194.167 1102.5,275.5C 1121.17,275.5 1139.83,275.5 1158.5,275.5C 1158.5,286.167 1158.5,296.833 1158.5,307.5C 1127.59,307.829 1096.76,307.496 1066,306.5C 1065.17,214.763 1065.34,123.097 1066.5,31.5 Z"/></g>
<g><path style="opacity:1" fill="#fffefe" d="M 1170.5,31.5 C 1182.5,31.5 1194.5,31.5 1206.5,31.5C 1206.67,117.167 1206.5,202.834 1206,288.5C 1204.5,294.506 1203,300.506 1201.5,306.5C 1191.19,307.499 1180.85,307.832 1170.5,307.5C 1170.5,215.5 1170.5,123.5 1170.5,31.5 Z"/></g>
<g><path style="opacity:1" fill="#fffdfe" d="M 1273.5,31.5 C 1283.17,31.5 1292.83,31.5 1302.5,31.5C 1322.17,123.5 1341.83,215.5 1361.5,307.5C 1349.17,307.5 1336.83,307.5 1324.5,307.5C 1321.49,289.775 1318.16,272.108 1314.5,254.5C 1296.27,253.175 1278.1,253.175 1260,254.5C 1255.93,272.053 1252.43,289.72 1249.5,307.5C 1237.83,307.667 1226.16,307.5 1214.5,307C 1233.43,215.194 1253.1,123.36 1273.5,31.5 Z M 1286.5,166.5 C 1283.89,182.121 1281.55,197.788 1279.5,213.5C 1284.5,213.5 1289.5,213.5 1294.5,213.5C 1291.55,197.752 1288.88,182.085 1286.5,166.5 Z"/></g>
<g><path style="opacity:1" fill="#fff5fa" d="M 721.5,31.5 C 721.5,123.167 721.5,214.833 721.5,306.5C 732.679,306.172 743.679,306.505 754.5,307.5C 743.167,307.5 731.833,307.5 720.5,307.5C 720.167,215.332 720.501,123.332 721.5,31.5 Z"/></g>
<g><path style="opacity:1" fill="#fff4fa" d="M 846.5,31.5 C 846.5,123.167 846.5,214.833 846.5,306.5C 857.679,306.172 868.679,306.505 879.5,307.5C 868.167,307.5 856.833,307.5 845.5,307.5C 845.167,215.332 845.501,123.332 846.5,31.5 Z"/></g>
<g><path style="opacity:0.986" fill="#ff7fcd" d="M 211.5,63.5 C 231.724,61.3541 244.557,70.0207 250,89.5C 251.511,100.122 251.844,110.789 251,121.5C 248.351,145.082 235.184,155.748 211.5,153.5C 211.5,123.5 211.5,93.5 211.5,63.5 Z M 223.5,76.5 C 223.167,98.1769 223.5,119.844 224.5,141.5C 230.798,139.702 234.965,135.702 237,129.5C 240.598,115.064 240.265,100.73 236,86.5C 233.7,80.6878 229.534,77.3545 223.5,76.5 Z"/></g>
<g><path style="opacity:0.989" fill="#ff7ecd" d="M 458.5,63.5 C 478.621,67.111 491.788,78.7776 498,98.5C 500.049,105.012 501.216,111.679 501.5,118.5C 501.444,123.731 502.111,128.731 503.5,133.5C 505.063,162.867 504.563,192.2 502,221.5C 501.429,238.232 495.596,252.732 484.5,265C 476.871,270.978 468.204,274.478 458.5,275.5C 454.833,275.5 451.167,275.5 447.5,275.5C 447.5,204.833 447.5,134.167 447.5,63.5C 451.167,63.5 454.833,63.5 458.5,63.5 Z M 458.5,75.5 C 458.5,138.167 458.5,200.833 458.5,263.5C 476.377,259.814 486.544,248.814 489,230.5C 492.706,197.233 493.373,163.9 491,130.5C 490.33,118.817 487.997,107.484 484,96.5C 479.207,84.8632 470.707,77.8632 458.5,75.5 Z"/></g>
<g><path style="opacity:0.979" fill="#ff7fcd" d="M 621.5,62.5 C 635.596,60.7971 645.429,66.4637 651,79.5C 654.553,87.4915 656.886,95.8248 658,104.5C 661.634,139.445 662.3,174.445 660,209.5C 659.361,222.304 657.695,234.971 655,247.5C 653.08,254.671 650.08,261.338 646,267.5C 637.269,277.187 627.102,279.021 615.5,273C 606.397,262.955 600.897,251.122 599,237.5C 597.753,227.19 596.753,216.857 596,206.5C 595.333,180.833 595.333,155.167 596,129.5C 595.865,110.215 599.865,91.8821 608,74.5C 611.454,69.206 615.954,65.206 621.5,62.5 Z M 625.5,74.5 C 623.645,75.6896 621.812,77.0229 620,78.5C 614.269,88.3618 610.936,99.0285 610,110.5C 607.563,141.786 606.896,173.119 608,204.5C 608.538,214.879 609.538,225.212 611,235.5C 612.423,244.439 615.423,252.772 620,260.5C 623.943,264.518 628.443,265.351 633.5,263C 638.693,257.123 642.193,250.29 644,242.5C 651.333,193.831 651.333,145.164 644,96.5C 642.3,89.7252 639.633,83.3919 636,77.5C 633.016,74.8999 629.516,73.8999 625.5,74.5 Z"/></g>
<g><path style="opacity:0.99" fill="#ff7fcd" d="M 757.5,63.5 C 780.066,61.7136 793.233,72.0469 797,94.5C 799.181,110.443 797.181,125.776 791,140.5C 788.448,144.719 784.948,147.886 780.5,150C 773.204,153.18 765.704,154.346 758,153.5C 757.5,123.502 757.333,93.5019 757.5,63.5 Z M 769.5,75.5 C 769.167,97.5101 769.5,119.51 770.5,141.5C 776.062,140.101 779.896,136.768 782,131.5C 786.593,116.825 786.593,102.159 782,87.5C 779.943,81.2756 775.776,77.2756 769.5,75.5 Z"/></g>
<g><path style="opacity:1" fill="#ff98d7" d="M 458.5,63.5 C 454.833,63.5 451.167,63.5 447.5,63.5C 447.5,134.167 447.5,204.833 447.5,275.5C 451.167,275.5 454.833,275.5 458.5,275.5C 454.702,276.483 450.702,276.817 446.5,276.5C 446.5,205.167 446.5,133.833 446.5,62.5C 450.702,62.1832 454.702,62.5166 458.5,63.5 Z"/></g>
<g><path style="opacity:0.99" fill="#ff80ce" d="M 1271.5,181.5 C 1272.92,179.485 1273.59,177.152 1273.5,174.5C 1277.23,146.121 1281.4,117.788 1286,89.5C 1286.29,87.9559 1286.96,86.6226 1288,85.5C 1294.13,132.248 1300.96,178.914 1308.5,225.5C 1294.17,225.5 1279.83,225.5 1265.5,225.5C 1267.22,210.792 1269.22,196.125 1271.5,181.5 Z M 1286.5,166.5 C 1283.89,182.121 1281.55,197.788 1279.5,213.5C 1284.5,213.5 1289.5,213.5 1294.5,213.5C 1291.55,197.752 1288.88,182.085 1286.5,166.5 Z"/></g>
<g><path style="opacity:1" fill="#ffd8ef" d="M 560.5,104.5 C 560.638,109.414 559.972,114.081 558.5,118.5C 558.362,113.586 559.028,108.919 560.5,104.5 Z"/></g>
<g><path style="opacity:1" fill="#ffbae4" d="M 501.5,118.5 C 502.889,123.269 503.556,128.269 503.5,133.5C 502.111,128.731 501.444,123.731 501.5,118.5 Z"/></g>
<g><path style="opacity:1" fill="#ffceec" d="M 540.5,128.5 C 541.81,134.288 542.477,140.288 542.5,146.5C 540.943,140.739 540.276,134.739 540.5,128.5 Z"/></g>
<g><path style="opacity:1" fill="#ffb2e1" d="M 698.5,129.5 C 700.027,141.629 700.694,153.962 700.5,166.5C 700.5,175.34 700.166,184.007 699.5,192.5C 699.66,171.489 699.326,150.489 698.5,129.5 Z"/></g>
<g><path style="opacity:1" fill="#ffbce5" d="M 1273.5,174.5 C 1273.59,177.152 1272.92,179.485 1271.5,181.5C 1271.41,178.848 1272.08,176.515 1273.5,174.5 Z"/></g>
<g><path style="opacity:1" fill="#ffa9dd" d="M 235.5,183.5 C 234.737,184.268 233.737,184.768 232.5,185C 225.842,185.5 219.175,185.666 212.5,185.5C 220.012,184.696 227.679,184.03 235.5,183.5 Z"/></g>
<g><path style="opacity:1" fill="#ffa9de" d="M 556.5,197.5 C 557.747,203.63 558.414,209.963 558.5,216.5C 556.906,210.406 556.239,204.072 556.5,197.5 Z"/></g>
<g><path style="opacity:1" fill="#ffb7e3" d="M 467.5,305.5 C 463.057,306.801 458.391,307.468 453.5,307.5C 457.919,306.028 462.586,305.362 467.5,305.5 Z"/></g>
<g><path style="opacity:1" fill="#ffbbf3" d="M 64.5,308.5 C 85.2056,307.461 103.872,312.961 120.5,325C 143.57,348.733 165.903,373.067 187.5,398C 165.903,422.933 143.57,447.267 120.5,471C 99.2465,486.894 75.9132,490.894 50.5,483C 25.8256,467.72 18.9923,446.553 30,419.5C 35.1195,410.713 41.9528,403.547 50.5,398C 29.1855,383.876 21.3522,364.376 27,339.5C 33.9998,322.319 46.4998,311.986 64.5,308.5 Z"/></g>
<g><path style="opacity:1" fill="#ffbbf3" d="M 1434.5,308.5 C 1464.24,306.117 1483.07,319.117 1491,347.5C 1492.2,369.258 1483.7,386.092 1465.5,398C 1492.22,417.039 1497.72,440.872 1482,469.5C 1466.97,485.047 1448.8,490.547 1427.5,486C 1411.6,482.762 1398.1,475.262 1387,463.5C 1367.87,441.369 1348.37,419.536 1328.5,398C 1350.1,373.067 1372.43,348.733 1395.5,325C 1406.96,315.686 1419.96,310.186 1434.5,308.5 Z"/></g>
<g><path style="opacity:1" fill="#ffbcf4" d="M 133.5,323.5 C 549.666,322.334 966,322.167 1382.5,323C 1361.55,346.406 1340.72,369.906 1320,393.5C 1318.81,398.368 1319.81,402.702 1323,406.5C 1342.13,428.631 1361.63,450.464 1381.5,472C 965.833,472.667 550.167,472.667 134.5,472C 154.784,449.261 174.951,426.427 195,403.5C 197.321,398.416 196.655,393.75 193,389.5C 173.671,367.006 153.838,345.006 133.5,323.5 Z"/></g>
<g><path style="opacity:1" fill="#fffbfe" d="M 1101.5,347.5 C 1118.53,345.374 1128.7,352.707 1132,369.5C 1132.67,387.5 1132.67,405.5 1132,423.5C 1128.9,439.931 1119.07,447.098 1102.5,445C 1095.74,443.237 1091.24,439.07 1089,432.5C 1087.19,426.944 1085.86,421.278 1085,415.5C 1084.08,399.454 1084.41,383.454 1086,367.5C 1088.08,358.286 1093.25,351.62 1101.5,347.5 Z"/></g>
<g><path style="opacity:1" fill="#fffbfe" d="M 269.5,348.5 C 275.842,348.334 282.175,348.5 288.5,349C 289.333,349.833 290.167,350.667 291,351.5C 291.667,355.167 291.667,358.833 291,362.5C 279.991,355.757 272.824,358.591 269.5,371C 270.372,375.578 272.205,379.745 275,383.5C 283.12,391.085 289.786,399.751 295,409.5C 295.667,416.5 295.667,423.5 295,430.5C 287.956,444.295 277.123,448.462 262.5,443C 260.083,440.521 259.083,437.521 259.5,434C 259.667,432.167 259.833,430.333 260,428.5C 266.337,433.897 273.003,434.564 280,430.5C 283.739,424.846 284.406,418.846 282,412.5C 275.333,404.5 268.667,396.5 262,388.5C 256.476,377.977 256.142,367.31 261,356.5C 263.729,353.601 266.562,350.934 269.5,348.5 Z"/></g>
<g><path style="opacity:1" fill="#fefdfe" d="M 375.5,348.5 C 379.833,348.5 384.167,348.5 388.5,348.5C 388.5,380.5 388.5,412.5 388.5,444.5C 384.167,444.5 379.833,444.5 375.5,444.5C 375.5,412.5 375.5,380.5 375.5,348.5 Z"/></g>
<g><path style="opacity:1" fill="#fffbfe" d="M 477.5,348.5 C 480.85,348.335 484.183,348.502 487.5,349C 488,349.5 488.5,350 489,350.5C 493.61,371.769 497.944,393.102 502,414.5C 505.629,393.1 509.629,371.767 514,350.5C 515.822,348.955 517.989,348.288 520.5,348.5C 522.429,348.54 524.262,348.873 526,349.5C 529.331,380.808 531.998,412.141 534,443.5C 530.591,444.622 527.091,444.789 523.5,444C 522.809,442.933 522.309,441.766 522,440.5C 520.864,421.831 519.697,403.164 518.5,384.5C 514.485,403.742 510.652,423.075 507,442.5C 504.174,444.34 501.007,445.006 497.5,444.5C 493.528,424.867 489.695,405.201 486,385.5C 484.002,405.129 482.502,424.795 481.5,444.5C 477.5,444.5 473.5,444.5 469.5,444.5C 471.727,412.44 474.394,380.44 477.5,348.5 Z"/></g>
<g><path style="opacity:1" fill="#fffcfe" d="M 613.5,348.5 C 617.833,348.5 622.167,348.5 626.5,348.5C 626.333,374.169 626.5,399.835 627,425.5C 628.962,431.812 633.128,434.312 639.5,433C 641.378,431.457 642.878,429.624 644,427.5C 645.368,401.188 645.868,374.855 645.5,348.5C 649.5,348.5 653.5,348.5 657.5,348.5C 657.958,376.876 657.458,405.209 656,433.5C 651.779,442.117 644.779,446.117 635,445.5C 624.434,445.563 617.767,440.563 615,430.5C 613.626,403.188 613.126,375.855 613.5,348.5 Z"/></g>
<g><path style="opacity:1" fill="#fefdfe" d="M 740.5,348.5 C 744.833,348.5 749.167,348.5 753.5,348.5C 753.5,376.833 753.5,405.167 753.5,433.5C 760.5,433.5 767.5,433.5 774.5,433.5C 774.5,437.167 774.5,440.833 774.5,444.5C 763.167,444.5 751.833,444.5 740.5,444.5C 740.5,412.5 740.5,380.5 740.5,348.5 Z"/></g>
<g><path style="opacity:1" fill="#fffbfe" d="M 871.5,348.5 C 875.007,347.994 878.174,348.66 881,350.5C 887.409,381.636 894.243,412.636 901.5,443.5C 897.205,444.661 892.871,444.828 888.5,444C 887.424,438.524 886.258,433.024 885,427.5C 884.5,427 884,426.5 883.5,426C 877.509,425.501 871.509,425.334 865.5,425.5C 864.221,431.784 863.221,438.117 862.5,444.5C 858.818,444.665 855.152,444.499 851.5,444C 850.892,442.769 850.559,441.436 850.5,440C 856.589,412.888 862.422,385.721 868,358.5C 868.736,354.93 869.903,351.596 871.5,348.5 Z"/></g>
<g><path style="opacity:1" fill="#fefdfe" d="M 967.5,348.5 C 981.5,348.5 995.5,348.5 1009.5,348.5C 1009.5,352.167 1009.5,355.833 1009.5,359.5C 1004.5,359.5 999.5,359.5 994.5,359.5C 994.5,387.833 994.5,416.167 994.5,444.5C 990.5,444.5 986.5,444.5 982.5,444.5C 982.5,416.167 982.5,387.833 982.5,359.5C 977.5,359.5 972.5,359.5 967.5,359.5C 967.5,355.833 967.5,352.167 967.5,348.5 Z"/></g>
<g><path style="opacity:1" fill="#fffcfe" d="M 1214.5,348.5 C 1244.49,342.667 1257.33,354.667 1253,384.5C 1251.35,390.138 1248.02,394.471 1243,397.5C 1242.83,398.333 1242.67,399.167 1242.5,400C 1247.34,414.679 1252.67,429.179 1258.5,443.5C 1253.95,444.8 1249.45,444.8 1245,443.5C 1239.72,428.974 1234.05,414.641 1228,400.5C 1227.5,415.163 1227.33,429.83 1227.5,444.5C 1223.17,444.5 1218.83,444.5 1214.5,444.5C 1214.5,412.5 1214.5,380.5 1214.5,348.5 Z"/></g>
<g><path style="opacity:1" fill="#ffbdf4" d="M 1105.5,358.5 C 1111.56,358.277 1115.73,360.944 1118,366.5C 1121.27,385.843 1121.27,405.176 1118,424.5C 1116.95,431.893 1112.78,435.06 1105.5,434C 1103.62,432.457 1102.12,430.624 1101,428.5C 1099.27,422.968 1098.27,417.301 1098,411.5C 1097.24,397.474 1097.57,383.474 1099,369.5C 1099.76,364.927 1101.93,361.26 1105.5,358.5 Z"/></g>
<g><path style="opacity:1" fill="#ffbdf4" d="M 1227.5,359.5 C 1234.5,358.906 1239,361.906 1241,368.5C 1242.06,374.724 1241.39,380.724 1239,386.5C 1235.99,390.057 1232.32,391.39 1228,390.5C 1227.5,380.172 1227.33,369.839 1227.5,359.5 Z"/></g>
<g><path style="opacity:1" fill="#ffbff4" d="M 874.5,371.5 C 878.119,386.203 880.785,401.203 882.5,416.5C 877.833,416.5 873.167,416.5 868.5,416.5C 870.606,401.528 872.606,386.528 874.5,371.5 Z"/></g>
</svg>
