<svg version="1.0" xmlns="http://www.w3.org/2000/svg" width="1600" height="547" viewBox="0 0 16000 5470"><g fill="#8a0000"><path d="M1078 5041c-75-24-139-62-189-113-46-47-99-134-99-163 1-13 28-42 76-80 42-33 83-67 92-75 9-9 105-87 212-175 107-87 222-181 254-209 66-56 65-58 17 74-18 47-49 135-71 195-21 61-57 162-80 225-74 205-120 333-120 336 0 8-38 2-92-15zm13854-93c-11-29-31-87-46-128-14-41-50-147-81-235-68-192-115-333-115-339 0-3 44 28 98 68 53 40 177 132 276 205l178 133-6 36c-9 61-62 155-116 208-48 48-133 104-157 104-6 0-20-24-31-52zm-13597-75c4-10 22-61 41-113 18-52 47-133 64-180s46-128 65-180c18-52 57-160 86-240l52-145 184-150c101-82 192-157 201-165s38-32 63-53l47-38 35 38c19 21 70 79 113 128 43 50 102 115 130 145 29 30 61 66 72 80 20 25 20 26 0 50-11 14-43 50-72 80-52 56-156 173-256 290-279 326-398 415-608 455-42 8-110 15-151 15-66 0-72-2-66-17zm13104 1c-201-40-325-133-599-454-101-118-204-235-256-290-29-30-62-67-73-81l-21-27 68-73c37-41 82-90 99-109 18-19 65-74 105-122 40-47 79-89 86-92s102 61 215 146c111 83 258 193 326 244l124 93 39 113c22 62 55 158 74 213 18 55 41 120 50 145 37 103 94 271 94 278 0 30-211 40-331 16z"/><path d="M2046 4678c33-35 100-110 149-168 50-58 93-107 96-110s40-45 83-94c42-48 107-119 144-158 103-106 103-140-3-250-55-57-99-106-236-263-133-152-174-199-227-255-34-36-61-71-62-77 0-10 1208-13 6010-13s6010 3 6010 13c-1 6-28 41-62 77-53 56-94 103-227 255-137 157-181 206-236 263-106 110-106 144-3 250 37 39 102 110 144 158 43 49 80 91 83 94s46 52 96 110c49 58 116 133 149 168l59 62H1987l59-62zm1391-217c110-51 156-225 94-354-13-27-63-91-112-143-127-137-149-216-79-286 33-32 86-38 134-13 15 8 30 15 32 15s4-26 4-58c0-53-2-60-25-70-14-7-59-12-100-12-68 0-77 3-117 33-54 41-79 94-86 178-7 105 12 147 124 270 127 137 146 178 124 258-21 77-97 103-180 61l-40-20v59c0 35 5 63 13 68 44 36 151 42 214 14zm3468 8c50-14 100-64 114-114 7-26 11-176 11-422v-383h-120v375c0 264-3 382-12 400-13 29-38 38-94 33-33-3-42-8-56-38-16-31-18-73-18-402v-368h-121l3 393c3 343 5 397 20 430 21 45 63 86 97 93 14 3 31 7 36 9 23 8 103 4 140-6zm4586-14c42-22 85-95 103-176 22-94 22-428 1-531-31-145-96-208-218-208-137 0-195 65-223 254-27 177-10 458 34 556 30 67 77 112 133 123 40 9 138-2 170-18zm-7041-445v-460h-120v920h120v-460zm884 443c3-10 10-128 16-263 15-320 20-346 42-215 9 55 35 187 57 294 23 106 41 195 41 197 0 7 79 4 83-3 3-5 17-73 32-153s31-163 35-185 16-86 26-142c9-57 19-101 21-100 3 4 15 196 30 465l6 122h119l-6-82c-4-46-13-150-21-233-20-207-44-468-51-542l-6-63h-53c-50 0-54 2-59 28-3 15-17 88-31 162s-32 164-40 200-19 102-26 148c-6 45-15 82-19 82-5 0-11-24-15-52-6-53-71-372-101-500l-16-68h-104l-13 153c-12 153-33 403-51 619-6 64-10 123-10 132 0 25 107 23 114-1zm2826-33v-50h-200v-820h-120v920h320v-50zm840 33c0-10 7-51 17-90l17-73h182l13 68c7 37 14 77 17 90 4 20 10 22 64 22 33 0 60-1 60-3 0-3-22-106-55-257-7-36-23-108-34-160s-30-138-41-190c-12-52-30-143-42-202l-21-108h-48c-47 0-48 1-59 38-5 22-14 62-20 91-5 29-19 94-30 144-31 137-47 209-75 342-14 66-35 159-45 206-11 48-20 89-20 93 0 3 27 6 60 6 51 0 60-3 60-17zm1280-393v-410h140v-100h-410v100h150v820h120v-410zm2241 183c0-260-5-258 79-28 28 77 58 156 65 175 8 19 17 45 20 58 6 20 13 22 66 22 32 0 59-3 59-7 0-8-76-211-131-352-16-40-29-77-29-82s14-15 30-24c17-9 42-34 58-57 26-39 27-48 27-157 0-110-1-118-28-159-42-65-87-82-224-82h-113v920h120l1-227z"/><path d="M11321 4342c-39-39-51-119-51-348 0-279 20-344 106-344 35 0 47 5 68 30 35 42 41 93 41 345 0 189-3 227-18 268-32 80-94 102-146 49zm-2268-174c4-18 16-82 27-143 11-60 25-145 30-189 10-80 20-112 20-61 0 39 37 264 66 403 4 21 2 22-72 22h-77l6-32zm3467-363v-155h36c50 0 93 46 96 104 3 66-3 139-13 158-12 23-61 48-94 48h-25v-155zM759 4566c-36-163 50-365 203-476l37-27-43-31c-81-58-146-150-182-255-55-162-8-336 125-460 98-92 195-122 360-114 248 13 382 86 601 329 55 61 100 115 100 119s-35 36-77 70c-43 35-94 77-114 93-19 17-55 47-80 67-24 20-87 72-140 115-53 44-140 115-194 159s-103 85-109 90c-14 13-218 181-262 215-17 14-68 55-114 93-45 37-86 67-90 67-5 0-14-24-21-54zm14386-145c-78-58-238-178-355-265-544-404-695-519-698-527-4-11 84-114 183-214 171-172 313-240 527-252 86-5 107-3 180 20 186 59 303 208 315 403 7 101-17 191-75 279-37 58-120 141-153 154-13 5-2 18 50 61 115 96 170 204 179 348 2 46 1 87-4 92-5 4-72-40-149-99zM3450 2653v-558l-31-85c-17-47-48-133-70-192-21-60-57-159-80-220-22-62-59-162-81-223-22-60-51-139-64-175s-33-90-44-120c-12-30-30-80-40-110s-28-80-40-110-30-80-40-110-28-79-39-108l-19-52 190 2 191 3 12 40c24 76 177 580 220 725 50 168 95 347 95 381 1 41 17 0 25-61 9-71 79-388 155-695 32-132 67-275 77-317l18-78h188c103 0 187 2 187 3 0 5-55 187-115 382-25 83-50 164-55 180-4 17-22 75-40 130-17 55-35 114-40 130-4 17-33 113-65 215-31 102-61 199-65 215-5 17-22 75-39 130l-31 100v1135h-360v-557zm794 535c3-13 19-84 35-158 17-74 40-180 51-235 12-55 28-129 36-165s23-105 34-155c10-49 28-133 40-185 11-52 26-117 31-145 19-87 28-128 49-225 12-52 30-135 40-185 11-49 29-133 41-185 11-52 29-135 39-185 11-49 28-129 39-178 12-48 28-122 36-165 16-78 70-326 87-394l9-38h139c123 0 139 2 144 18 3 9 15 62 26 117s28 138 39 185c10 47 28 130 40 185 11 55 30 143 41 195 12 52 29 136 40 185 11 50 28 133 40 185 11 52 27 129 36 170 8 41 31 147 50 235 20 88 39 180 44 205s18 88 30 140c11 52 29 136 40 185 10 50 28 133 40 185 11 52 30 140 41 195s24 116 28 135c5 19 12 50 15 68l6 32h-356l-13-67c-7-38-26-133-41-213-16-80-31-164-35-187l-7-43h-518v25c0 14-7 54-15 88-7 34-28 137-46 230l-32 167h-347l4-22zm896-775c0-8-32-189-55-308-52-281-104-620-127-835-14-139-12-143-37 70-18 155-55 388-96 610-7 41-18 102-24 135s-22 118-36 188c-14 71-25 133-25 138s85 9 200 9c110 0 200-3 200-7zm780-513V590l168 2 167 3 46 135c344 1015 427 1276 520 1634 18 70 23 41 10-58-35-262-42-423-48-1063l-6-653h363v2620l-167-2-168-3-223-670c-122-368-229-692-237-720-24-78-91-334-105-400-7-33-14-64-16-70-5-12 4 167 16 360 5 77 14 415 20 750 6 336 12 643 13 683l2 72h-355V1900zm1690 0V588l323 5c380 6 430 15 552 92 157 100 272 285 330 530 65 275 80 896 30 1225-55 363-170 571-371 670-76 37-98 44-224 71-77 17-146 22-367 26l-273 6V1900zm510 980c126-24 230-100 279-204 74-155 96-331 95-761-2-599-59-833-229-951-59-40-172-74-247-74h-48v2000h49c26 0 72-5 101-10zm1170-980V590h940v300h-580v820l258 2 257 3 3 153 3 152h-521v890h580v300h-940V1900zm1320-1V588l318 5c351 5 385 10 497 72 172 96 265 310 265 610 0 358-118 585-342 658-19 7-31-29 146 442 111 295 135 358 158 415 6 14 18 48 28 75 10 28 28 75 40 105s25 66 30 80c4 14 20 55 34 93l26 67h-369l-10-32c-5-18-18-55-29-83-10-27-45-120-76-205-32-85-72-191-88-235-17-44-42-109-55-145s-30-81-38-100c-7-19-37-98-65-175s-58-158-67-180c-44-114-42-139-42 528l-1 627h-360V1899zm540-180c100-36 150-103 176-236 25-132 11-340-30-435-42-99-120-149-243-156l-83-5v864l63-6c34-4 87-15 117-26zm990 181V590h940v300h-580v820h520v310h-520v890h580v300h-940V1900z"/></g></svg>